<svg xmlns="http://www.w3.org/2000/svg" viewBox="0 0 1600 500" role="img" aria-labelledby="title desc">
  <title id="title">Sustainly Green advertising banner</title>
  <desc id="desc">Abstract sustainable business network with green leaves and connected companies.</desc>
  <defs>
    <linearGradient id="bg" x1="0" y1="0" x2="1" y2="1">
      <stop offset="0" stop-color="#0a3b26"/>
      <stop offset="0.55" stop-color="#12613a"/>
      <stop offset="1" stop-color="#38a85d"/>
    </linearGradient>
    <radialGradient id="glow">
      <stop offset="0" stop-color="#baf7c9" stop-opacity=".42"/>
      <stop offset="1" stop-color="#baf7c9" stop-opacity="0"/>
    </radialGradient>
    <filter id="shadow" x="-30%" y="-30%" width="160%" height="160%">
      <feDropShadow dx="0" dy="12" stdDeviation="14" flood-color="#031b10" flood-opacity=".28"/>
    </filter>
  </defs>
  <rect width="1600" height="500" rx="36" fill="url(#bg)"/>
  <circle cx="1320" cy="130" r="330" fill="url(#glow)"/>
  <circle cx="1110" cy="410" r="260" fill="url(#glow)"/>
  <g opacity=".18" fill="none" stroke="#e9fff0" stroke-width="3">
    <path d="M850 84c180 20 226 130 340 166s218-8 354 90"/>
    <path d="M760 404c180-112 300-58 418-132s203-166 365-128"/>
  </g>
  <g fill="#e9fff0" opacity=".82">
    <path d="M1480 74c-70 2-118 34-129 98 69 4 119-27 129-98Z"/>
    <path d="M898 348c-55 1-93 27-102 77 55 3 94-21 102-77Z"/>
    <path d="M1260 336c58 2 97 29 107 81-58 4-99-22-107-81Z"/>
  </g>
  <g filter="url(#shadow)">
    <rect x="1010" y="126" width="230" height="250" rx="30" fill="#fff" fill-opacity=".96"/>
    <rect x="1070" y="188" width="110" height="110" rx="28" fill="#dff6e5"/>
    <path d="M1125 212c-33 17-39 58-7 77 34-16 42-57 7-77Zm0 13c15 13 13 34 0 47-15-12-16-34 0-47Z" fill="#218747"/>
    <rect x="1050" y="326" width="150" height="12" rx="6" fill="#b8d8c1"/>
  </g>
  <g fill="#fff" opacity=".95">
    <circle cx="1375" cy="250" r="42"/>
    <circle cx="1310" cy="345" r="30"/>
    <circle cx="1460" cy="350" r="34"/>
  </g>
  <g stroke="#dfffe7" stroke-width="6" opacity=".8">
    <path d="M1240 250h93M1230 324l54 20M1410 282l33 42"/>
  </g>
</svg>
